<svg width="87" height="57" viewBox="0 0 87 57" fill="none" xmlns="http://www.w3.org/2000/svg">
<path d="M70.4455 20.646L36.506 20.3607C31.5746 22.9283 22.234 30.1745 24.3226 38.619C26.4112 47.0635 32.735 51.4569 35.6358 52.5981H69.2852C74.5067 52.0275 85.0076 48.0905 85.2397 36.9073C85.4718 25.7241 75.4736 21.4067 70.4455 20.646Z" fill="white"/>
<path d="M27.2142 23.3117C30.6092 19.9728 35.294 17.9043 40.4567 17.9043L68.522 17.9043C78.8474 17.9043 87.2643 26.1821 87.2643 36.3367C87.2643 46.4914 78.8474 54.7692 68.522 54.7692H40.4567C30.1326 54.7692 21.7153 46.4907 21.7144 36.3367C21.7144 31.2594 23.8192 26.6505 27.2142 23.3117ZM30.3128 26.359C27.7224 28.9066 26.124 32.4313 26.124 36.3367C26.1247 44.1467 32.5164 50.4325 40.4567 50.4325H51.374L51.3725 27.849C51.3725 27.849 65.5602 26.4684 68.3682 26.4684C71.1763 26.4684 73.5671 27.4961 75.4622 29.36C77.3574 31.2239 79.2582 36.3367 79.2582 36.3367H82.8547C82.8547 28.5259 76.4642 22.241 68.522 22.241L40.4567 22.241C36.4856 22.241 32.9032 23.8115 30.3128 26.359Z" fill="#0F716B"/>
<path d="M6.95436 28.6986L30.7275 4.91525C36.056 3.30282 47.8606 1.93226 52.4513 9.34943C57.0419 16.7666 55.7303 24.2644 54.5007 27.0861L30.7275 50.4663C26.6287 53.6912 16.3816 58.206 8.18401 50.4663C-0.0136333 42.7267 3.94856 32.7296 6.95436 28.6986Z" fill="white"/>
<path d="M39.4119 0.544434C34.6148 0.544434 29.8191 2.33811 26.1717 5.92521L6.34364 25.4255C-0.951137 32.5997 -0.951137 44.2961 6.34364 51.4704C13.6384 58.6446 25.5314 58.6446 32.8262 51.4704L52.6542 31.9701C59.9482 24.7967 59.9479 13.0996 52.6542 5.92521C49.0069 2.33811 44.2089 0.544433 39.4119 0.544434ZM39.4119 4.85033C43.072 4.85033 46.7334 6.2299 49.5389 8.98906C55.1489 14.5072 55.1486 23.3892 49.5389 28.9062L41.8258 36.4918L25.6037 20.5356C25.6037 20.5356 14.5884 29.418 12.6045 31.3691C10.6205 33.3202 9.66983 35.7075 9.66983 38.3411C9.66983 40.9747 11.9999 45.9076 11.9999 45.9076L9.45899 48.4065C3.84792 42.8882 3.84792 34.0077 9.45899 28.4894L29.287 8.98906C32.0926 6.2299 35.7517 4.85033 39.4119 4.85033Z" fill="#9B3648"/>
</svg>
