<svg width="60" height="66" viewBox="0 0 60 66" fill="none" xmlns="http://www.w3.org/2000/svg">
<path d="M1.80697 2.54193C1.80697 1.03292 3.07762 -0.190419 4.64498 -0.190419H55.0197C56.5871 -0.190419 57.8577 1.03292 57.8577 2.54193V12.7882C57.8577 14.2972 56.5871 15.5206 55.0197 15.5206H4.64498C3.07762 15.5206 1.80697 14.2972 1.80697 12.7882V2.54193Z" fill="white"/>
<path d="M3.93551 18.9361C3.93551 17.0498 5.52381 15.5207 7.48303 15.5207H51.4722C53.4314 15.5207 55.0197 17.0498 55.0197 18.9361V61.2872C55.0197 63.174 53.4314 64.7029 51.4722 64.7029H7.48303C5.52381 64.7029 3.93551 63.174 3.93551 61.2872V18.9361Z" fill="white"/>
<path d="M3.8912 -0.332031C2.45793 -0.332031 1.29704 0.8096 1.29704 2.21918V13.6998H0V17.5266H3.8912V62.1734C3.8912 64.2577 5.66283 66 7.7824 66H51.8824C54.002 66 55.7736 64.2577 55.7736 62.1734V17.5266H59.6649V13.6998H58.3678V2.21918C58.3678 0.8096 57.2069 -0.332031 55.7736 -0.332031H3.8912ZM9.07944 3.49478C9.7954 3.49478 10.3765 4.06633 10.3765 4.77045V12.4241C10.3765 13.1283 9.7954 13.6998 9.07944 13.6998C8.36348 13.6998 7.7824 13.1283 7.7824 12.4241V4.77045C7.7824 4.06633 8.36348 3.49478 9.07944 3.49478ZM19.4559 3.49478H20.753C21.4689 3.49478 22.05 4.06633 22.05 4.77045V12.4241C22.05 13.1283 21.4689 13.6998 20.753 13.6998H19.4559C18.74 13.6998 18.1589 13.1283 18.1589 12.4241V4.77045C18.1589 4.06633 18.74 3.49478 19.4559 3.49478ZM38.9118 3.49478H40.2089C40.9248 3.49478 41.5059 4.06633 41.5059 4.77045V12.4241C41.5059 13.1283 40.9248 13.6998 40.2089 13.6998H38.9118C38.1959 13.6998 37.6148 13.1283 37.6148 12.4241V4.77045C37.6148 4.06633 38.1959 3.49478 38.9118 3.49478ZM50.5854 3.49478C51.3013 3.49478 51.8824 4.06633 51.8824 4.77045V12.4241C51.8824 13.1283 51.3013 13.6998 50.5854 13.6998C49.8694 13.6998 49.2883 13.1283 49.2883 12.4241V4.77045C49.2883 4.06633 49.8694 3.49478 50.5854 3.49478ZM9.07944 17.5266H50.5854V22.6291H23.3471V55.7953H50.5854V60.8979H9.07944V55.7953H12.9706V22.6291H9.07944V17.5266ZM32.956 27.7316H38.4381C41.1386 27.7316 42.8968 29.3618 42.8968 32.1988C42.8968 34.2691 42.0182 35.6387 40.3204 36.362L42.9702 41.1556L45.8734 36.2474H48.7588L44.4851 43.4277L48.7588 50.6928H45.6099L42.7853 45.6825L39.9429 50.6928H36.9966L41.3337 43.4103L37.3538 36.6834H35.5931V42.177H32.956V27.7316ZM35.5931 30.2878V34.1073H38.3773C39.625 34.1073 40.3001 33.5052 40.3001 32.2985C40.3001 30.9501 39.625 30.2878 38.3773 30.2878H35.5931Z" fill="url(#paint0_linear_55_18)"/>
<defs>
<linearGradient id="paint0_linear_55_18" x1="29.8324" y1="-0.332031" x2="29.8324" y2="66" gradientUnits="userSpaceOnUse">
<stop stop-color="#454B54"/>
<stop offset="0.654" stop-color="#67707D"/>
<stop offset="1" stop-color="#99A6BA"/>
</linearGradient>
</defs>
</svg>
