<svg width="382" height="462" viewBox="0 0 382 462" fill="none" xmlns="http://www.w3.org/2000/svg">
<g clip-path="url(#clip0_52_34)">
<path d="M323.969 454.614H68.6727C45.6541 454.614 26.8208 435.193 26.8208 411.456V66.1974C26.8208 42.4609 45.6541 23.04 68.6727 23.04H323.969C346.987 23.04 365.821 42.4609 365.821 66.1974V411.456C365.821 435.193 346.987 454.614 323.969 454.614Z" fill="white"/>
<path d="M41.3208 441.858C41.3208 441.858 293.902 449.912 366.585 373.561V424.85L337.821 456.74L65.7198 460.038L41.3208 441.858Z" fill="#0D6761"/>
<path d="M368.685 335.931C301.405 421.192 35.3208 433.886 35.3208 433.886L40.205 442.121C73.592 442.735 289.821 447.173 368.685 373.827C372.821 367.98 368.685 335.931 368.685 335.931Z" fill="url(#paint0_linear_52_34)" fill-opacity="0.67"/>
<path d="M369.576 318.551C325.251 369.922 226.882 405.485 148.828 426.847C230.408 414.058 331.105 388.885 368.685 340.461L369.576 348.976V318.551Z" fill="url(#paint1_linear_52_34)" fill-opacity="0.14"/>
<path d="M237.159 19.5787C237.159 19.5787 73.7631 33.6605 23.8203 101.17L29.3198 53.8671L53.8198 25.1664L124.465 17.8672L124.465 18.8343L236.574 18.8343L237.159 19.5787Z" fill="#0D6761"/>
<path d="M23.078 100.639C23.0781 103.309 23.0784 130.734 23.0784 130.734C71.9258 58.8368 237.953 24.5202 237.953 24.5202L229.821 18.257C208.193 20.9953 71.8205 40.0482 23.078 100.639Z" fill="url(#paint2_linear_52_34)" fill-opacity="0.67"/>
<path d="M153.821 49.084C102.657 76.6817 53.4164 102.913 29.4706 152.33L25.8206 126.682C53.3206 89.4776 99.1039 69.7268 153.821 49.084Z" fill="url(#paint3_linear_52_34)" fill-opacity="0.14"/>
<path fill-rule="evenodd" clip-rule="evenodd" d="M319.82 461.132H75.8203C47.0203 461.132 23.8203 436.879 23.8203 406.771V72.2363C23.8203 42.1282 47.0203 17.8745 75.8203 17.8745H319.82C348.62 17.8745 371.82 42.1282 371.82 72.2363V406.771C371.82 436.879 348.62 461.132 319.82 461.132ZM78.8203 24.103C51.7584 24.103 29.8203 47.4229 29.8203 76.1895V402.527C29.8203 431.294 51.7584 454.614 78.8203 454.614H316.82C343.882 454.614 365.82 431.294 365.82 402.527V76.1895C365.82 47.4229 343.882 24.103 316.82 24.103H78.8203Z" fill="url(#paint4_linear_52_34)"/>
<path fill-rule="evenodd" clip-rule="evenodd" d="M177.321 103.827H218.321V160.715L268.158 131.64L288.151 169.093L240.083 197.136L287.686 224.907L267.693 262.36L218.321 233.557V290.957H177.321V233.751L128.278 262.363L108.285 224.91L155.893 197.136L107.82 169.09L127.813 131.637L177.321 160.52V103.827Z" fill="#7CA4C5" fill-opacity="0.08"/>
<g clip-path="url(#clip1_52_34)">
<path d="M365.446 425.646L331.506 425.361C326.575 427.928 317.234 435.174 319.323 443.619C321.411 452.063 327.735 456.457 330.636 457.598L364.285 457.598C369.507 457.027 380.008 453.09 380.24 441.907C380.472 430.724 370.474 426.407 365.446 425.646Z" fill="white" stroke="#9B3648"/>
<path d="M322.214 428.312C325.609 424.973 330.294 422.904 335.457 422.904L363.522 422.904C373.847 422.904 382.264 431.182 382.264 441.337C382.264 451.491 373.847 459.769 363.522 459.769H335.457C325.133 459.769 316.715 451.491 316.714 441.337C316.714 436.259 318.819 431.65 322.214 428.312ZM325.313 431.359C322.722 433.906 321.124 437.431 321.124 441.337C321.125 449.147 327.516 455.432 335.457 455.432H346.374L346.372 432.849C346.372 432.849 360.56 431.468 363.368 431.468C366.176 431.468 368.567 432.496 370.462 434.36C372.357 436.224 374.258 441.337 374.258 441.337L377.855 441.337C377.855 433.526 371.464 427.241 363.522 427.241L335.457 427.241C331.486 427.241 327.903 428.811 325.313 431.359Z" fill="#0F716B"/>
</g>
<g clip-path="url(#clip2_52_34)">
<path d="M301.954 433.698L325.728 409.915C331.056 408.303 342.861 406.932 347.451 414.349C352.042 421.766 350.73 429.264 349.501 432.086L325.728 455.466C321.629 458.691 311.382 463.206 303.184 455.466C294.986 447.726 298.949 437.729 301.954 433.698Z" fill="white" stroke="#9B3648"/>
<path d="M334.412 405.544C329.615 405.544 324.819 407.338 321.172 410.925L301.344 430.425C294.049 437.599 294.049 449.296 301.344 456.47C308.638 463.644 320.531 463.644 327.826 456.47L347.654 436.97C354.948 429.796 354.948 418.099 347.654 410.925C344.007 407.338 339.209 405.544 334.412 405.544ZM334.412 409.85C338.072 409.85 341.733 411.23 344.539 413.989C350.149 419.507 350.149 428.389 344.539 433.906L336.826 441.492L320.604 425.535C320.604 425.535 309.588 434.418 307.604 436.369C305.621 438.32 304.67 440.707 304.67 443.341C304.67 445.974 307 450.907 307 450.907L304.459 453.406C298.848 447.888 298.848 439.007 304.459 433.489L324.287 413.989C327.093 411.23 330.752 409.85 334.412 409.85Z" fill="#9B3648"/>
</g>
<path d="M2.80713 3.54192C2.80713 2.03291 4.07778 0.80957 5.64514 0.80957H56.0199C57.5872 0.80957 58.8579 2.03291 58.8579 3.54192V13.7882C58.8579 15.2972 57.5872 16.5205 56.0199 16.5205H5.64514C4.07778 16.5205 2.80713 15.2972 2.80713 13.7882V3.54192Z" fill="white"/>
<path d="M4.93555 19.9362C4.93555 18.0499 6.52384 16.5208 8.48306 16.5208H52.4723C54.4315 16.5208 56.0198 18.0499 56.0198 19.9362V62.2873C56.0198 64.1741 54.4315 65.7029 52.4723 65.7029H8.48306C6.52384 65.7029 4.93555 64.1741 4.93555 62.2873V19.9362Z" fill="white"/>
<path d="M4.8912 0.667969C3.45793 0.667969 2.29704 1.8096 2.29704 3.21918V14.6998H1V18.5266H4.8912V63.1734C4.8912 65.2577 6.66283 67 8.7824 67H52.8824C55.002 67 56.7736 65.2577 56.7736 63.1734V18.5266H60.6649V14.6998H59.3678V3.21918C59.3678 1.8096 58.2069 0.667969 56.7736 0.667969H4.8912ZM10.0794 4.49478C10.7954 4.49478 11.3765 5.06633 11.3765 5.77045V13.4241C11.3765 14.1283 10.7954 14.6998 10.0794 14.6998C9.36348 14.6998 8.7824 14.1283 8.7824 13.4241V5.77045C8.7824 5.06633 9.36348 4.49478 10.0794 4.49478ZM20.4559 4.49478H21.753C22.4689 4.49478 23.05 5.06633 23.05 5.77045V13.4241C23.05 14.1283 22.4689 14.6998 21.753 14.6998H20.4559C19.74 14.6998 19.1589 14.1283 19.1589 13.4241V5.77045C19.1589 5.06633 19.74 4.49478 20.4559 4.49478ZM39.9118 4.49478H41.2089C41.9248 4.49478 42.5059 5.06633 42.5059 5.77045V13.4241C42.5059 14.1283 41.9248 14.6998 41.2089 14.6998H39.9118C39.1959 14.6998 38.6148 14.1283 38.6148 13.4241V5.77045C38.6148 5.06633 39.1959 4.49478 39.9118 4.49478ZM51.5854 4.49478C52.3013 4.49478 52.8824 5.06633 52.8824 5.77045V13.4241C52.8824 14.1283 52.3013 14.6998 51.5854 14.6998C50.8694 14.6998 50.2883 14.1283 50.2883 13.4241V5.77045C50.2883 5.06633 50.8694 4.49478 51.5854 4.49478ZM10.0794 18.5266H51.5854V23.6291H24.3471V56.7953H51.5854V61.8979H10.0794V56.7953H13.9706V23.6291H10.0794V18.5266ZM33.956 28.7316H39.4381C42.1386 28.7316 43.8968 30.3618 43.8968 33.1988C43.8968 35.2691 43.0182 36.6387 41.3203 37.362L43.9702 42.1556L46.8734 37.2474H49.7588L45.4851 44.4277L49.7588 51.6928H46.6099L43.7853 46.6825L40.9429 51.6928H37.9966L42.3337 44.4103L38.3538 37.6834H36.5931V43.177H33.956V28.7316ZM36.5931 31.2878V35.1072H39.3773C40.625 35.1072 41.3001 34.5052 41.3001 33.2985C41.3001 31.9501 40.625 31.2878 39.3773 31.2878H36.5931Z" fill="url(#paint5_linear_52_34)"/>
</g>
<defs>
<linearGradient id="paint0_linear_52_34" x1="368.686" y1="393.385" x2="31.8203" y2="393.385" gradientUnits="userSpaceOnUse">
<stop stop-color="#0D6761"/>
<stop offset="0.48" stop-color="#149B93"/>
<stop offset="1" stop-color="#1BCDC2"/>
</linearGradient>
<linearGradient id="paint1_linear_52_34" x1="369.576" y1="394.204" x2="38.5352" y2="394.204" gradientUnits="userSpaceOnUse">
<stop stop-color="#4B5F5E"/>
<stop offset="0.345" stop-color="#9DC5C2" stop-opacity="0.74"/>
</linearGradient>
<linearGradient id="paint2_linear_52_34" x1="239.054" y1="76.9099" x2="22.0015" y2="81.5648" gradientUnits="userSpaceOnUse">
<stop stop-color="#0D6761"/>
<stop offset="0.48" stop-color="#149B93"/>
<stop offset="1" stop-color="#1BCDC2"/>
</linearGradient>
<linearGradient id="paint3_linear_52_34" x1="9.7559" y1="105.169" x2="239.212" y2="70.4296" gradientUnits="userSpaceOnUse">
<stop stop-color="#4B5F5E"/>
<stop offset="0.345" stop-color="#9DC5C2" stop-opacity="0.74"/>
</linearGradient>
<linearGradient id="paint4_linear_52_34" x1="322.82" y1="445.451" x2="55.3013" y2="28.4725" gradientUnits="userSpaceOnUse">
<stop stop-color="#454B54"/>
<stop offset="0.644" stop-color="#68717F"/>
<stop offset="1" stop-color="#99A6BA"/>
</linearGradient>
<linearGradient id="paint5_linear_52_34" x1="30.8324" y1="0.667969" x2="30.8324" y2="67" gradientUnits="userSpaceOnUse">
<stop stop-color="#454B54"/>
<stop offset="0.654" stop-color="#67707D"/>
<stop offset="1" stop-color="#99A6BA"/>
</linearGradient>
<clipPath id="clip0_52_34">
<rect width="382" height="462" fill="white"/>
</clipPath>
<clipPath id="clip1_52_34">
<rect width="63.4028" height="64.2336" fill="white" transform="matrix(-0.70908 0.705128 0.70908 0.705128 350.9 399)"/>
</clipPath>
<clipPath id="clip2_52_34">
<rect width="63.5247" height="63.1707" fill="white" transform="translate(293.547 405.749)"/>
</clipPath>
</defs>
</svg>
