<svg xmlns="http://www.w3.org/2000/svg" x="0px" y="0px" width="100" height="100" viewBox="0,0,256,256">
<g fill="#ffffff" fill-rule="nonzero" stroke="none" stroke-width="1" stroke-linecap="butt" stroke-linejoin="miter" stroke-miterlimit="10" stroke-dasharray="" stroke-dashoffset="0" font-family="none" font-weight="none" font-size="none" text-anchor="none" style="mix-blend-mode: normal"><g transform="scale(4,4)"><path d="M21.83203,3c-0.81581,0 -1.71245,0.39567 -2.31641,1h-1.01562c-1.27075,0 -2.97777,0.36979 -4.32227,1.74219c-1.3445,1.3724 -2.17773,3.58984 -2.17773,6.83984c0,1.79566 0.44928,4.76712 1.17383,8.37109c0.1772,0.8814 0.37263,1.7973 0.58203,2.73047c-4.17357,4.03926 -6.75977,9.57513 -6.75977,15.68164c0,3.26884 0.43919,6.03786 0.875,7.99023c-1.73815,1.27368 -2.87109,3.32454 -2.87109,5.64453c0,3.866 3.134,7 7,7c3.866,0 7,-3.134 7,-7c0,-3.866 -3.134,-7 -7,-7c-0.11684,0 -0.23026,0.01192 -0.3457,0.01758c-0.32632,-1.63514 -0.6582,-3.94247 -0.6582,-6.65234c0,-4.12569 1.47012,-7.92125 3.91406,-10.98828c0.36705,1.38942 0.74925,2.77434 1.16016,4.11328c0.5469,1.78244 1.07022,3.6408 2.47656,5.14453c1.16935,1.25033 2.9078,2.04891 5.27344,2.28516c0.10947,0.5576 0.24925,1.13422 0.44727,2.03711c0.15154,0.68909 0.56401,1.241 1.09961,1.59766c1.45488,8.90623 7.2627,14.44531 15.63281,14.44531c9.913,0 16,-10.15359 16,-17.43359c0,-10.292 -5.5663,-17.01769 -12.9043,-20.55469l-0.64062,4.10547c5.571,3.062 9.54492,8.44622 9.54492,16.44922c0,5.478 -4.675,13.43359 -12,13.43359c-2.51559,0 -10.11434,-0.87186 -11.70312,-10.98828c0.58331,-0.57458 0.84985,-1.43687 0.79297,-2.33203c-0.01494,-0.23864 -0.01525,-0.49165 -0.01367,-0.74805c2.41963,-0.22263 4.19035,-1.02809 5.37695,-2.29687c1.40634,-1.50373 1.92966,-3.36209 2.47656,-5.14453c1.16176,-3.78563 2.17194,-7.93313 2.89648,-11.53711c0.72454,-3.60397 1.17383,-6.57544 1.17383,-8.37109c0,-3.25 -0.83324,-5.46745 -2.17773,-6.83984c-1.3445,-1.3724 -3.05152,-1.74219 -4.32227,-1.74219h-1.01562c-0.60395,-0.60433 -1.50059,-1 -2.31641,-1h-2.09375c-1.381,0 -2.07422,1.119 -2.07422,2.5c0,1.381 0.69322,2.5 2.07422,2.5h2.09375c0.81522,0 1.71227,-0.39567 2.31641,-1h1.01563c0.72925,0 1.52223,0.17269 2.17773,0.8418c0.6555,0.6691 1.32227,1.99023 1.32227,4.74023c0,0.93713 -0.24088,2.93879 -0.66797,5.39258c-2.58742,-0.63921 -5.25497,-0.97461 -7.88867,-0.97461c-4.272,0 -8.27747,1.10167 -11.73047,3.01367l1.19922,3.93359c3.038,-1.857 6.65025,-2.94727 10.53125,-2.94727c2.40931,0 4.81591,0.29287 7.12109,0.86523c-0.35843,1.67208 -0.76776,3.41173 -1.22266,5.16992c-1.08679,0.0725 -1.99773,0.87701 -2.46094,2.21484c-0.985,2.845 -0.77986,5.792 -6.88086,5.75v1.79688h-0.00195v-1.79883c-6.1,0.043 -5.89491,-2.90405 -6.87891,-5.74805c-0.4632,-1.33784 -1.37415,-2.14234 -2.46094,-2.21484c-0.59185,-2.28753 -1.12197,-4.57974 -1.54297,-6.67383c-0.70596,-3.51153 -1.11523,-6.55195 -1.11523,-7.7793c0,-2.75 0.66676,-4.07113 1.32227,-4.74023c0.6555,-0.6691 1.44848,-0.8418 2.17773,-0.8418h1.01563c0.60414,0.60433 1.50118,1 2.31641,1h2.09375c1.381,0 2.07422,-1.119 2.07422,-2.5c0,-1.381 -0.69322,-2.5 -2.07422,-2.5zM12,50c1.654,0 3,1.346 3,3c0,1.654 -1.346,3 -3,3c-1.654,0 -3,-1.346 -3,-3c0,-1.654 1.346,-3 3,-3z"></path></g></g>
</svg>